{"title":"Death Race 4 Beyond Anarchy 2018 720p BRRip x264 ESub [MW]","magnet":"magnet:?xt=urn:btih:2e309deae00cd922aedaa5d2af7ce8a5c8581c01&dn=Death+Race+4+Beyond+Anarchy+2018+720p+BRRip+x264+ESub+%5BMW%5D&tr=udp%3A%2F%2Ftracker.leechers-paradise.org%3A6969&tr=udp%3A%2F%2Fzer0day.ch%3A1337&tr=udp%3A%2F%2Fopen.demonii.com%3A1337&tr=udp%3A%2F%2Ftracker.coppersurfer.tk%3A6969&tr=udp%3A%2F%2Fexodus.desync.com%3A6969","uploader":"MFreaky","categoryP":"video","categoryS":"hd___movies","size":"1319099890","seeders":"17","leechers":"34","description":" <a href=\"https://pichub.site/image/EQAPX\" rel=\"nofollow\" target=\"_NEW\">https://pichub.site/image/EQAPX</a> <a href=\"\nhttps://pichub.site/image/EQ8KI\" rel=\"nofollow\" target=\"_NEW\">\nhttps://pichub.site/image/EQ8KI</a> <a href=\"\nhttps://pichub.site/image/EQKJ8\" rel=\"nofollow\" target=\"_NEW\">\nhttps://pichub.site/image/EQKJ8</a> <a href=\"\nhttps://pichub.site/image/EQmo5\" rel=\"nofollow\" target=\"_NEW\">\nhttps://pichub.site/image/EQmo5</a> <a href=\"\nhttps://pichub.site/image/EQgiJ\" rel=\"nofollow\" target=\"_NEW\">\nhttps://pichub.site/image/EQgiJ</a>\r\n\r\nIMDB <a href=\"\nhttps://www.imdb.com/title/tt3807900/\" rel=\"nofollow\" target=\"_NEW\">\nhttps://www.imdb.com/title/tt3807900/</a>\r\n\r\nVideo\r\nFormat                                   : AVC\r\nFormat/Info                              : Advanced Video Codec\r\nFormat profile                           : High@L4.1\r\nFormat settings                          : CABAC / 4 Ref Frames\r\nFormat settings, CABAC                   : Yes\r\nFormat settings, RefFrames               : 4 frames\r\nCodec ID                                 : V_MPEG4/ISO/AVC\r\nDuration                                 : 1 h 50 min\r\nBit rate                                 : 1 500 kb/s\r\nWidth                                    : 1 280 pixels\r\nHeight                                   : 720 pixels\r\nDisplay aspect ratio                     : 16:9\r\nFrame rate mode                          : Constant\r\nFrame rate                               : 23.976 (24000/1001) FPS\r\nColor space                              : YUV\r\nChroma subsampling                       : 4:2:0\r\nBit depth                                : 8 bits\r\nBits/(Pixel*Frame)                       : 0.068\r\nStream size                              : 1.15 GiB (94%)\r\nWriting library                          : x264 core 155 r2901 7d0ff22\r\n\r\nAudio\r\nFormat                                   : AAC\r\nFormat/Info                              : Advanced Audio Codec\r\nFormat profile                           : HE-AAC / LC\r\nFormat settings                          : Explicit\r\nCodec ID                                 : A_AAC-2\r\nDuration                                 : 1 h 50 min\r\nBit rate                                 : 96.0 kb/s\r\nChannel(s)                               : 2 channels\r\nChannel positions                        : Front: L R\r\nSampling rate                            : 48.0 kHz / 24.0 kHz\r\nFrame rate                               : 23.438 FPS (1024 SPF)\r\nStream size                              : 75.2 MiB (6%)\r\nLanguage                                 : English","last_updated":"2018-10-04T12:23:36.091Z","parsed":{"xt":"urn:btih:2e309deae00cd922aedaa5d2af7ce8a5c8581c01","dn":"Death Race 4 Beyond Anarchy 2018 720p BRRip x264 ESub [MW]","tr":["udp://exodus.desync.com:6969","udp://open.demonii.com:1337","udp://tracker.coppersurfer.tk:6969","udp://tracker.leechers-paradise.org:6969","udp://zer0day.ch:1337"],"infoHash":"2e309deae00cd922aedaa5d2af7ce8a5c8581c01","infoHashBuffer":{"type":"Buffer","data":[46,48,157,234,224,12,217,34,174,218,165,210,175,124,232,165,200,88,28,1]},"name":"Death Race 4 Beyond Anarchy 2018 720p BRRip x264 ESub [MW]","announce":["udp://exodus.desync.com:6969","udp://open.demonii.com:1337","udp://tracker.coppersurfer.tk:6969","udp://tracker.leechers-paradise.org:6969","udp://zer0day.ch:1337"],"urlList":[]}}